<svg version="1.1" xmlns="http://www.w3.org/2000/svg" xmlns:xlink="http://www.w3.org/1999/xlink" width="1020" height="673"><defs><clipPath id="IZHlcdMSuddK"><path fill="none" stroke="none" d=" M 0 0 L 1020 0 L 1020 673 L 0 673 L 0 0 Z"/></clipPath></defs><g transform="scale(1,1)" clip-path="url(#IZHlcdMSuddK)"><g><rect fill="rgb(255,255,255)" stroke="none" x="0" y="0" width="1020" height="674" fill-opacity="1"/><path fill="rgb(153,51,0)" stroke="none" paint-order="stroke fill markers" fill-rule="evenodd" d=" M 317.5454545454544 30.04545454545473 L 193.5326522511226 560.9556590905906 L 795.6780354018945 561.8228256474247 Z" fill-opacity="0.09803921568627451"/><path fill="none" stroke="rgb(0,0,0)" paint-order="fill stroke markers" d=" M 581.596720348509 389.5634083093412 C 581.596720348509 484.3927209174416 504.72237349986403 561.2670677660867 409.8930608917638 561.2670677660867 C 315.06374828366353 561.2670677660867 238.1894014350186 484.3927209174416 238.1894014350186 389.5634083093412 C 238.1894014350186 294.7340957012408 315.06374828366353 217.85974885259571 409.8930608917638 217.85974885259571 C 504.72237349986403 217.85974885259571 581.596720348509 294.7340957012408 581.596720348509 389.5634083093412 Z" stroke-opacity="0.6980392156862745" stroke-linecap="round" stroke-linejoin="round" stroke-miterlimit="10" stroke-width="2.5"/><path fill="none" stroke="rgb(153,51,0)" paint-order="fill stroke markers" d=" M 317.5454545454544 30.04545454545473 L 193.5326522511226 560.9556590905906" stroke-opacity="0.6980392156862745" stroke-linecap="round" stroke-linejoin="round" stroke-miterlimit="10" stroke-width="2.5"/><path fill="none" stroke="rgb(153,51,0)" paint-order="fill stroke markers" d=" M 193.5326522511226 560.9556590905906 L 795.6780354018945 561.8228256474247" stroke-opacity="0.6980392156862745" stroke-linecap="round" stroke-linejoin="round" stroke-miterlimit="10" stroke-width="2.5"/><path fill="none" stroke="rgb(153,51,0)" paint-order="fill stroke markers" d=" M 795.6780354018945 561.8228256474247 L 317.5454545454544 30.04545454545473" stroke-opacity="0.6980392156862745" stroke-linecap="round" stroke-linejoin="round" stroke-miterlimit="10" stroke-width="2.5"/><path fill="none" stroke="rgb(0,0,0)" paint-order="fill stroke markers" d=" M 316.94067071984097 449.99683012320827 L 193.5326522511226 560.9556590905906" stroke-opacity="0.6980392156862745" stroke-linecap="round" stroke-linejoin="round" stroke-miterlimit="10" stroke-width="2.5"/><path fill="none" stroke="rgb(0,0,0)" paint-order="fill stroke markers" d=" M 316.94067071984097 449.99683012320827 L 317.5454545454544 30.04545454545473" stroke-opacity="0.6980392156862745" stroke-linecap="round" stroke-linejoin="round" stroke-miterlimit="10" stroke-width="2.5"/><path fill="none" stroke="rgb(0,0,0)" paint-order="fill stroke markers" d=" M 316.94067071984097 449.99683012320827 L 795.6780354018945 561.8228256474247" stroke-opacity="0.6980392156862745" stroke-linecap="round" stroke-linejoin="round" stroke-miterlimit="10" stroke-width="2.5"/><path fill="none" stroke="rgb(0,0,0)" paint-order="fill stroke markers" d=" M 435.3837861242861 524.2584382870746 L 317.5454545454544 30.04545454545473" stroke-opacity="0.6980392156862745" stroke-linecap="round" stroke-linejoin="round" stroke-miterlimit="10" stroke-width="2.5"/><path fill="none" stroke="rgb(0,0,0)" paint-order="fill stroke markers" d=" M 193.5326522511226 560.9556590905906 L 476.7213868890633 347.2883701053626" stroke-opacity="0.6980392156862745" stroke-linecap="round" stroke-linejoin="round" stroke-miterlimit="10" stroke-width="2.5"/><path fill="none" stroke="rgb(0,0,0)" paint-order="fill stroke markers" d=" M 795.6780354018945 561.8228256474247 L 276.0062591721393 346.9993145864179" stroke-opacity="0.6980392156862745" stroke-linecap="round" stroke-linejoin="round" stroke-miterlimit="10" stroke-width="2.5"/><path fill="rgb(77,77,255)" stroke="none" paint-order="stroke fill markers" d=" M 322.5454545454544 30.04545454545473 C 322.5454545454544 32.806878294608694 320.30687829460834 35.04545454545473 317.5454545454544 35.04545454545473 C 314.78403079630044 35.04545454545473 312.5454545454544 32.806878294608694 312.5454545454544 30.04545454545473 C 312.5454545454544 27.284030796300765 314.78403079630044 25.04545454545473 317.5454545454544 25.04545454545473 C 320.30687829460834 25.04545454545473 322.5454545454544 27.284030796300765 322.5454545454544 30.04545454545473 Z" fill-opacity="1"/><path fill="none" stroke="rgb(0,0,0)" paint-order="fill stroke markers" d=" M 322.5454545454544 30.04545454545473 C 322.5454545454544 32.806878294608694 320.30687829460834 35.04545454545473 317.5454545454544 35.04545454545473 C 314.78403079630044 35.04545454545473 312.5454545454544 32.806878294608694 312.5454545454544 30.04545454545473 C 312.5454545454544 27.284030796300765 314.78403079630044 25.04545454545473 317.5454545454544 25.04545454545473 C 320.30687829460834 25.04545454545473 322.5454545454544 27.284030796300765 322.5454545454544 30.04545454545473 Z" stroke-opacity="1" stroke-linecap="round" stroke-linejoin="round" stroke-miterlimit="10"/><text fill="rgb(77,77,255)" stroke="none" font-family="geogebra-sans-serif, sans-serif" font-size="16px" font-style="normal" font-weight="normal" text-decoration="normal" x="322" y="24" text-anchor="start" dominant-baseline="alphabetic" fill-opacity="1">A</text><path fill="rgb(77,77,255)" stroke="none" paint-order="stroke fill markers" d=" M 198.5326522511226 560.9556590905906 C 198.5326522511226 563.7170828397446 196.2940760002766 565.9556590905906 193.5326522511226 565.9556590905906 C 190.77122850196864 565.9556590905906 188.5326522511226 563.7170828397446 188.5326522511226 560.9556590905906 C 188.5326522511226 558.1942353414366 190.77122850196864 555.9556590905906 193.5326522511226 555.9556590905906 C 196.2940760002766 555.9556590905906 198.5326522511226 558.1942353414366 198.5326522511226 560.9556590905906 Z" fill-opacity="1"/><path fill="none" stroke="rgb(0,0,0)" paint-order="fill stroke markers" d=" M 198.5326522511226 560.9556590905906 C 198.5326522511226 563.7170828397446 196.2940760002766 565.9556590905906 193.5326522511226 565.9556590905906 C 190.77122850196864 565.9556590905906 188.5326522511226 563.7170828397446 188.5326522511226 560.9556590905906 C 188.5326522511226 558.1942353414366 190.77122850196864 555.9556590905906 193.5326522511226 555.9556590905906 C 196.2940760002766 555.9556590905906 198.5326522511226 558.1942353414366 198.5326522511226 560.9556590905906 Z" stroke-opacity="1" stroke-linecap="round" stroke-linejoin="round" stroke-miterlimit="10"/><text fill="rgb(77,77,255)" stroke="none" font-family="geogebra-sans-serif, sans-serif" font-size="16px" font-style="normal" font-weight="normal" text-decoration="normal" x="198" y="551" text-anchor="start" dominant-baseline="alphabetic" fill-opacity="1">B</text><path fill="rgb(77,77,255)" stroke="none" paint-order="stroke fill markers" d=" M 800.6780354018945 561.8228256474247 C 800.6780354018945 564.5842493965787 798.4394591510485 566.8228256474247 795.6780354018945 566.8228256474247 C 792.9166116527405 566.8228256474247 790.6780354018945 564.5842493965787 790.6780354018945 561.8228256474247 C 790.6780354018945 559.0614018982707 792.9166116527405 556.8228256474247 795.6780354018945 556.8228256474247 C 798.4394591510485 556.8228256474247 800.6780354018945 559.0614018982707 800.6780354018945 561.8228256474247 Z" fill-opacity="1"/><path fill="none" stroke="rgb(0,0,0)" paint-order="fill stroke markers" d=" M 800.6780354018945 561.8228256474247 C 800.6780354018945 564.5842493965787 798.4394591510485 566.8228256474247 795.6780354018945 566.8228256474247 C 792.9166116527405 566.8228256474247 790.6780354018945 564.5842493965787 790.6780354018945 561.8228256474247 C 790.6780354018945 559.0614018982707 792.9166116527405 556.8228256474247 795.6780354018945 556.8228256474247 C 798.4394591510485 556.8228256474247 800.6780354018945 559.0614018982707 800.6780354018945 561.8228256474247 Z" stroke-opacity="1" stroke-linecap="round" stroke-linejoin="round" stroke-miterlimit="10"/><text fill="rgb(77,77,255)" stroke="none" font-family="geogebra-sans-serif, sans-serif" font-size="16px" font-style="normal" font-weight="normal" text-decoration="normal" x="800" y="552" text-anchor="start" dominant-baseline="alphabetic" fill-opacity="1">C</text><path fill="rgb(110,109,115)" stroke="none" paint-order="stroke fill markers" d=" M 320.94067071984097 449.99683012320827 C 320.94067071984097 452.2059691225314 319.1498097191641 453.99683012320827 316.94067071984097 453.99683012320827 C 314.7315317205178 453.99683012320827 312.94067071984097 452.2059691225314 312.94067071984097 449.99683012320827 C 312.94067071984097 447.7876911238851 314.7315317205178 445.99683012320827 316.94067071984097 445.99683012320827 C 319.1498097191641 445.99683012320827 320.94067071984097 447.7876911238851 320.94067071984097 449.99683012320827 Z" fill-opacity="1"/><path fill="none" stroke="rgb(0,0,0)" paint-order="fill stroke markers" d=" M 320.94067071984097 449.99683012320827 C 320.94067071984097 452.2059691225314 319.1498097191641 453.99683012320827 316.94067071984097 453.99683012320827 C 314.7315317205178 453.99683012320827 312.94067071984097 452.2059691225314 312.94067071984097 449.99683012320827 C 312.94067071984097 447.7876911238851 314.7315317205178 445.99683012320827 316.94067071984097 445.99683012320827 C 319.1498097191641 445.99683012320827 320.94067071984097 447.7876911238851 320.94067071984097 449.99683012320827 Z" stroke-opacity="1" stroke-linecap="round" stroke-linejoin="round" stroke-miterlimit="10"/><text fill="rgb(110,109,115)" stroke="none" font-family="geogebra-sans-serif, sans-serif" font-size="16px" font-style="normal" font-weight="normal" text-decoration="normal" x="321" y="442" text-anchor="start" dominant-baseline="alphabetic" fill-opacity="1">H</text><path fill="rgb(110,109,115)" stroke="none" paint-order="stroke fill markers" d=" M 439.3837861242861 524.2584382870746 C 439.3837861242861 526.4675772863977 437.59292512360923 528.2584382870746 435.3837861242861 528.2584382870746 C 433.1746471249629 528.2584382870746 431.3837861242861 526.4675772863977 431.3837861242861 524.2584382870746 C 431.3837861242861 522.0492992877514 433.1746471249629 520.2584382870746 435.3837861242861 520.2584382870746 C 437.59292512360923 520.2584382870746 439.3837861242861 522.0492992877514 439.3837861242861 524.2584382870746 Z" fill-opacity="1"/><path fill="none" stroke="rgb(0,0,0)" paint-order="fill stroke markers" d=" M 439.3837861242861 524.2584382870746 C 439.3837861242861 526.4675772863977 437.59292512360923 528.2584382870746 435.3837861242861 528.2584382870746 C 433.1746471249629 528.2584382870746 431.3837861242861 526.4675772863977 431.3837861242861 524.2584382870746 C 431.3837861242861 522.0492992877514 433.1746471249629 520.2584382870746 435.3837861242861 520.2584382870746 C 437.59292512360923 520.2584382870746 439.3837861242861 522.0492992877514 439.3837861242861 524.2584382870746 Z" stroke-opacity="1" stroke-linecap="round" stroke-linejoin="round" stroke-miterlimit="10"/><text fill="rgb(110,109,115)" stroke="none" font-family="geogebra-sans-serif, sans-serif" font-size="16px" font-style="normal" font-weight="normal" text-decoration="normal" x="439" y="516" text-anchor="start" dominant-baseline="alphabetic" fill-opacity="1">D</text><path fill="rgb(110,109,115)" stroke="none" paint-order="stroke fill markers" d=" M 480.7213868890633 347.2883701053626 C 480.7213868890633 349.4975091046858 478.93052588838646 351.2883701053626 476.7213868890633 351.2883701053626 C 474.51224788974014 351.2883701053626 472.7213868890633 349.4975091046858 472.7213868890633 347.2883701053626 C 472.7213868890633 345.07923110603946 474.51224788974014 343.2883701053626 476.7213868890633 343.2883701053626 C 478.93052588838646 343.2883701053626 480.7213868890633 345.07923110603946 480.7213868890633 347.2883701053626 Z" fill-opacity="1"/><path fill="none" stroke="rgb(0,0,0)" paint-order="fill stroke markers" d=" M 480.7213868890633 347.2883701053626 C 480.7213868890633 349.4975091046858 478.93052588838646 351.2883701053626 476.7213868890633 351.2883701053626 C 474.51224788974014 351.2883701053626 472.7213868890633 349.4975091046858 472.7213868890633 347.2883701053626 C 472.7213868890633 345.07923110603946 474.51224788974014 343.2883701053626 476.7213868890633 343.2883701053626 C 478.93052588838646 343.2883701053626 480.7213868890633 345.07923110603946 480.7213868890633 347.2883701053626 Z" stroke-opacity="1" stroke-linecap="round" stroke-linejoin="round" stroke-miterlimit="10"/><text fill="rgb(110,109,115)" stroke="none" font-family="geogebra-sans-serif, sans-serif" font-size="16px" font-style="normal" font-weight="normal" text-decoration="normal" x="481" y="339" text-anchor="start" dominant-baseline="alphabetic" fill-opacity="1">E</text><path fill="rgb(110,109,115)" stroke="none" paint-order="stroke fill markers" d=" M 280.0062591721393 346.9993145864179 C 280.0062591721393 349.20845358574104 278.2153981714625 350.9993145864179 276.0062591721393 350.9993145864179 C 273.79712017281616 350.9993145864179 272.0062591721393 349.20845358574104 272.0062591721393 346.9993145864179 C 272.0062591721393 344.7901755870947 273.79712017281616 342.9993145864179 276.0062591721393 342.9993145864179 C 278.2153981714625 342.9993145864179 280.0062591721393 344.7901755870947 280.0062591721393 346.9993145864179 Z" fill-opacity="1"/><path fill="none" stroke="rgb(0,0,0)" paint-order="fill stroke markers" d=" M 280.0062591721393 346.9993145864179 C 280.0062591721393 349.20845358574104 278.2153981714625 350.9993145864179 276.0062591721393 350.9993145864179 C 273.79712017281616 350.9993145864179 272.0062591721393 349.20845358574104 272.0062591721393 346.9993145864179 C 272.0062591721393 344.7901755870947 273.79712017281616 342.9993145864179 276.0062591721393 342.9993145864179 C 278.2153981714625 342.9993145864179 280.0062591721393 344.7901755870947 280.0062591721393 346.9993145864179 Z" stroke-opacity="1" stroke-linecap="round" stroke-linejoin="round" stroke-miterlimit="10"/><text fill="rgb(110,109,115)" stroke="none" font-family="geogebra-sans-serif, sans-serif" font-size="16px" font-style="normal" font-weight="normal" text-decoration="normal" x="280" y="339" text-anchor="start" dominant-baseline="alphabetic" fill-opacity="1">F</text><path fill="rgb(110,109,115)" stroke="none" paint-order="stroke fill markers" d=" M 409.9242032295781 400.7051923516696 C 409.9242032295781 402.91433135099277 408.13334222890126 404.7051923516696 405.9242032295781 404.7051923516696 C 403.71506423025494 404.7051923516696 401.9242032295781 402.91433135099277 401.9242032295781 400.7051923516696 C 401.9242032295781 398.49605335234645 403.71506423025494 396.7051923516696 405.9242032295781 396.7051923516696 C 408.13334222890126 396.7051923516696 409.9242032295781 398.49605335234645 409.9242032295781 400.7051923516696 Z" fill-opacity="1"/><path fill="none" stroke="rgb(0,0,0)" paint-order="fill stroke markers" d=" M 409.9242032295781 400.7051923516696 C 409.9242032295781 402.91433135099277 408.13334222890126 404.7051923516696 405.9242032295781 404.7051923516696 C 403.71506423025494 404.7051923516696 401.9242032295781 402.91433135099277 401.9242032295781 400.7051923516696 C 401.9242032295781 398.49605335234645 403.71506423025494 396.7051923516696 405.9242032295781 396.7051923516696 C 408.13334222890126 396.7051923516696 409.9242032295781 398.49605335234645 409.9242032295781 400.7051923516696 Z" stroke-opacity="1" stroke-linecap="round" stroke-linejoin="round" stroke-miterlimit="10"/><text fill="rgb(110,109,115)" stroke="none" font-family="geogebra-sans-serif, sans-serif" font-size="16px" font-style="normal" font-weight="normal" text-decoration="normal" x="410" y="393" text-anchor="start" dominant-baseline="alphabetic" fill-opacity="1">P</text></g></g></svg>