<svg version="1.1" xmlns="http://www.w3.org/2000/svg" xmlns:xlink="http://www.w3.org/1999/xlink" width="1456" height="644"><defs><clipPath id="nCCgNqyIvdtH"><path fill="none" stroke="none" d=" M 0 0 L 1456 0 L 1456 644 L 0 644 L 0 0 Z"/></clipPath></defs><g transform="scale(1,1)" clip-path="url(#nCCgNqyIvdtH)"><g><rect fill="rgb(255,255,255)" stroke="none" x="0" y="0" width="1456" height="644" fill-opacity="1"/><path fill="rgb(153,51,0)" stroke="none" paint-order="stroke fill markers" fill-rule="evenodd" d=" M 692.6799385327107 379.98345628589635 L 658.7954036037843 522.7092246228895 L 827.704676204039 523.7360287116447 Z" fill-opacity="0.09803921568627451"/><path fill="rgb(153,51,0)" stroke="none" paint-order="stroke fill markers" fill-rule="evenodd" d=" M 658.7954036037843 522.7092246228895 L 692.6799385327107 379.98345628589635 L 549.9541701957176 346.0989213569699 L 516.069635266791 488.824689693963 Z" fill-opacity="0.09803921568627451"/><path fill="none" stroke="rgb(153,51,0)" paint-order="fill stroke markers" d=" M 658.7954036037843 522.7092246228895 L 692.6799385327107 379.98345628589635 L 549.9541701957176 346.0989213569699 L 516.069635266791 488.824689693963 Z" stroke-opacity="0.6980392156862745" stroke-linecap="round" stroke-linejoin="round" stroke-miterlimit="10" stroke-width="2.5"/><path fill="rgb(153,51,0)" stroke="none" paint-order="stroke fill markers" fill-rule="evenodd" d=" M 692.6799385327107 379.98345628589635 L 827.704676204039 523.7360287116447 L 971.4572486297875 388.71129104031684 L 836.4325109584594 244.95871861456837 Z" fill-opacity="0.09803921568627451"/><path fill="none" stroke="rgb(153,51,0)" paint-order="fill stroke markers" d=" M 692.6799385327107 379.98345628589635 L 827.704676204039 523.7360287116447 L 971.4572486297875 388.71129104031684 L 836.4325109584594 244.95871861456837 Z" stroke-opacity="0.6980392156862745" stroke-linecap="round" stroke-linejoin="round" stroke-miterlimit="10" stroke-width="2.5"/><path fill="none" stroke="rgb(0,0,0)" paint-order="fill stroke markers" d=" M 765.8027977878023 380.0974462913959 C 765.8027977878023 462.1311006742586 699.3013814340642 528.6325170279965 617.2677270512014 528.6325170279965 C 535.2340726683386 528.6325170279965 468.73265631460055 462.1311006742586 468.73265631460055 380.0974462913959 C 468.73265631460055 298.0637919085332 535.2340726683386 231.5623755547952 617.2677270512014 231.5623755547952 C 699.3013814340642 231.5623755547952 765.8027977878023 298.0637919085332 765.8027977878023 380.0974462913959 Z" stroke-opacity="0.6980392156862745" stroke-linecap="round" stroke-linejoin="round" stroke-miterlimit="10" stroke-width="2.5"/><path fill="none" stroke="rgb(0,0,0)" paint-order="fill stroke markers" d=" M 980.3908064319778 329.65005180846833 C 980.3908064319778 439.9405574433167 890.9826861883482 529.3486776869463 780.6921805534996 529.3486776869463 C 670.4016749186511 529.3486776869463 580.9935546750214 439.9405574433167 580.9935546750214 329.65005180846833 C 580.9935546750214 219.35954617361992 670.4016749186511 129.95142592999034 780.6921805534996 129.95142592999034 C 890.9826861883482 129.95142592999034 980.3908064319778 219.35954617361992 980.3908064319778 329.65005180846833 Z" stroke-opacity="0.6980392156862745" stroke-linecap="round" stroke-linejoin="round" stroke-miterlimit="10" stroke-width="2.5"/><path fill="none" stroke="rgb(153,51,0)" paint-order="fill stroke markers" d=" M 692.6799385327107 379.98345628589635 L 658.7954036037843 522.7092246228895" stroke-opacity="0.6980392156862745" stroke-linecap="round" stroke-linejoin="round" stroke-miterlimit="10" stroke-width="2.5"/><path fill="none" stroke="rgb(153,51,0)" paint-order="fill stroke markers" d=" M 658.7954036037843 522.7092246228895 L 827.704676204039 523.7360287116447" stroke-opacity="0.6980392156862745" stroke-linecap="round" stroke-linejoin="round" stroke-miterlimit="10" stroke-width="2.5"/><path fill="none" stroke="rgb(153,51,0)" paint-order="fill stroke markers" d=" M 827.704676204039 523.7360287116447 L 692.6799385327107 379.98345628589635" stroke-opacity="0.6980392156862745" stroke-linecap="round" stroke-linejoin="round" stroke-miterlimit="10" stroke-width="2.5"/><path fill="none" stroke="rgb(153,51,0)" paint-order="fill stroke markers" d=" M 658.7954036037843 522.7092246228895 L 692.6799385327107 379.98345628589635" stroke-opacity="0.6980392156862745" stroke-linecap="round" stroke-linejoin="round" stroke-miterlimit="10" stroke-width="2.5"/><path fill="none" stroke="rgb(153,51,0)" paint-order="fill stroke markers" d=" M 692.6799385327107 379.98345628589635 L 549.9541701957176 346.0989213569699" stroke-opacity="0.6980392156862745" stroke-linecap="round" stroke-linejoin="round" stroke-miterlimit="10" stroke-width="2.5"/><path fill="none" stroke="rgb(153,51,0)" paint-order="fill stroke markers" d=" M 549.9541701957176 346.0989213569699 L 516.069635266791 488.824689693963" stroke-opacity="0.6980392156862745" stroke-linecap="round" stroke-linejoin="round" stroke-miterlimit="10" stroke-width="2.5"/><path fill="none" stroke="rgb(153,51,0)" paint-order="fill stroke markers" d=" M 516.069635266791 488.824689693963 L 658.7954036037843 522.7092246228895" stroke-opacity="0.6980392156862745" stroke-linecap="round" stroke-linejoin="round" stroke-miterlimit="10" stroke-width="2.5"/><path fill="none" stroke="rgb(153,51,0)" paint-order="fill stroke markers" d=" M 692.6799385327107 379.98345628589635 L 827.704676204039 523.7360287116447" stroke-opacity="0.6980392156862745" stroke-linecap="round" stroke-linejoin="round" stroke-miterlimit="10" stroke-width="2.5"/><path fill="none" stroke="rgb(153,51,0)" paint-order="fill stroke markers" d=" M 827.704676204039 523.7360287116447 L 971.4572486297875 388.71129104031684" stroke-opacity="0.6980392156862745" stroke-linecap="round" stroke-linejoin="round" stroke-miterlimit="10" stroke-width="2.5"/><path fill="none" stroke="rgb(153,51,0)" paint-order="fill stroke markers" d=" M 971.4572486297875 388.71129104031684 L 836.4325109584594 244.95871861456837" stroke-opacity="0.6980392156862745" stroke-linecap="round" stroke-linejoin="round" stroke-miterlimit="10" stroke-width="2.5"/><path fill="none" stroke="rgb(153,51,0)" paint-order="fill stroke markers" d=" M 836.4325109584594 244.95871861456837 L 692.6799385327107 379.98345628589635" stroke-opacity="0.6980392156862745" stroke-linecap="round" stroke-linejoin="round" stroke-miterlimit="10" stroke-width="2.5"/><path fill="none" stroke="rgb(0,0,0)" paint-order="fill stroke markers" d=" M 658.7954036037843 522.7092246228895 L 836.4325109584594 244.95871861456837" stroke-opacity="0.6980392156862745" stroke-linecap="round" stroke-linejoin="round" stroke-miterlimit="10" stroke-width="2.5"/><path fill="none" stroke="rgb(0,0,0)" paint-order="fill stroke markers" d=" M 827.704676204039 523.7360287116447 L 549.9541701957176 346.0989213569699" stroke-opacity="0.6980392156862745" stroke-linecap="round" stroke-linejoin="round" stroke-miterlimit="10" stroke-width="2.5"/><path fill="none" stroke="rgb(0,0,0)" paint-order="fill stroke markers" d=" M 658.7954036037843 522.7092246228895 L 971.4572486297875 388.71129104031684" stroke-opacity="0.6980392156862745" stroke-linecap="round" stroke-linejoin="round" stroke-miterlimit="10" stroke-width="2.5"/><path fill="none" stroke="rgb(0,0,0)" paint-order="fill stroke markers" d=" M 516.069635266791 488.824689693963 L 827.704676204039 523.7360287116447" stroke-opacity="0.6980392156862745" stroke-linecap="round" stroke-linejoin="round" stroke-miterlimit="10" stroke-width="2.5"/><path fill="rgb(77,77,255)" stroke="none" paint-order="stroke fill markers" d=" M 697.6799385327107 379.98345628589635 C 697.6799385327107 382.7448800350503 695.4413622818647 384.98345628589635 692.6799385327107 384.98345628589635 C 689.9185147835567 384.98345628589635 687.6799385327107 382.7448800350503 687.6799385327107 379.98345628589635 C 687.6799385327107 377.2220325367424 689.9185147835567 374.98345628589635 692.6799385327107 374.98345628589635 C 695.4413622818647 374.98345628589635 697.6799385327107 377.2220325367424 697.6799385327107 379.98345628589635 Z" fill-opacity="1"/><path fill="none" stroke="rgb(0,0,0)" paint-order="fill stroke markers" d=" M 697.6799385327107 379.98345628589635 C 697.6799385327107 382.7448800350503 695.4413622818647 384.98345628589635 692.6799385327107 384.98345628589635 C 689.9185147835567 384.98345628589635 687.6799385327107 382.7448800350503 687.6799385327107 379.98345628589635 C 687.6799385327107 377.2220325367424 689.9185147835567 374.98345628589635 692.6799385327107 374.98345628589635 C 695.4413622818647 374.98345628589635 697.6799385327107 377.2220325367424 697.6799385327107 379.98345628589635 Z" stroke-opacity="1" stroke-linecap="round" stroke-linejoin="round" stroke-miterlimit="10"/><text fill="rgb(77,77,255)" stroke="none" font-family="geogebra-sans-serif, sans-serif" font-size="16px" font-style="normal" font-weight="normal" text-decoration="normal" x="697" y="370" text-anchor="start" dominant-baseline="alphabetic" fill-opacity="1">A</text><path fill="rgb(77,77,255)" stroke="none" paint-order="stroke fill markers" d=" M 663.7954036037843 522.7092246228895 C 663.7954036037843 525.4706483720435 661.5568273529383 527.7092246228895 658.7954036037843 527.7092246228895 C 656.0339798546303 527.7092246228895 653.7954036037843 525.4706483720435 653.7954036037843 522.7092246228895 C 653.7954036037843 519.9478008737354 656.0339798546303 517.7092246228895 658.7954036037843 517.7092246228895 C 661.5568273529383 517.7092246228895 663.7954036037843 519.9478008737354 663.7954036037843 522.7092246228895 Z" fill-opacity="1"/><path fill="none" stroke="rgb(0,0,0)" paint-order="fill stroke markers" d=" M 663.7954036037843 522.7092246228895 C 663.7954036037843 525.4706483720435 661.5568273529383 527.7092246228895 658.7954036037843 527.7092246228895 C 656.0339798546303 527.7092246228895 653.7954036037843 525.4706483720435 653.7954036037843 522.7092246228895 C 653.7954036037843 519.9478008737354 656.0339798546303 517.7092246228895 658.7954036037843 517.7092246228895 C 661.5568273529383 517.7092246228895 663.7954036037843 519.9478008737354 663.7954036037843 522.7092246228895 Z" stroke-opacity="1" stroke-linecap="round" stroke-linejoin="round" stroke-miterlimit="10"/><text fill="rgb(77,77,255)" stroke="none" font-family="geogebra-sans-serif, sans-serif" font-size="16px" font-style="normal" font-weight="normal" text-decoration="normal" x="663" y="513" text-anchor="start" dominant-baseline="alphabetic" fill-opacity="1">B</text><path fill="rgb(77,77,255)" stroke="none" paint-order="stroke fill markers" d=" M 832.704676204039 523.7360287116447 C 832.704676204039 526.4974524607987 830.466099953193 528.7360287116447 827.704676204039 528.7360287116447 C 824.9432524548849 528.7360287116447 822.704676204039 526.4974524607987 822.704676204039 523.7360287116447 C 822.704676204039 520.9746049624907 824.9432524548849 518.7360287116447 827.704676204039 518.7360287116447 C 830.466099953193 518.7360287116447 832.704676204039 520.9746049624907 832.704676204039 523.7360287116447 Z" fill-opacity="1"/><path fill="none" stroke="rgb(0,0,0)" paint-order="fill stroke markers" d=" M 832.704676204039 523.7360287116447 C 832.704676204039 526.4974524607987 830.466099953193 528.7360287116447 827.704676204039 528.7360287116447 C 824.9432524548849 528.7360287116447 822.704676204039 526.4974524607987 822.704676204039 523.7360287116447 C 822.704676204039 520.9746049624907 824.9432524548849 518.7360287116447 827.704676204039 518.7360287116447 C 830.466099953193 518.7360287116447 832.704676204039 520.9746049624907 832.704676204039 523.7360287116447 Z" stroke-opacity="1" stroke-linecap="round" stroke-linejoin="round" stroke-miterlimit="10"/><text fill="rgb(77,77,255)" stroke="none" font-family="geogebra-sans-serif, sans-serif" font-size="16px" font-style="normal" font-weight="normal" text-decoration="normal" x="832" y="514" text-anchor="start" dominant-baseline="alphabetic" fill-opacity="1">C</text><path fill="rgb(110,109,115)" stroke="none" paint-order="stroke fill markers" d=" M 554.9541701957176 346.0989213569699 C 554.9541701957176 348.8603451061239 552.7155939448716 351.0989213569699 549.9541701957176 351.0989213569699 C 547.1927464465635 351.0989213569699 544.9541701957176 348.8603451061239 544.9541701957176 346.0989213569699 C 544.9541701957176 343.337497607816 547.1927464465635 341.0989213569699 549.9541701957176 341.0989213569699 C 552.7155939448716 341.0989213569699 554.9541701957176 343.337497607816 554.9541701957176 346.0989213569699 Z" fill-opacity="1"/><path fill="none" stroke="rgb(0,0,0)" paint-order="fill stroke markers" d=" M 554.9541701957176 346.0989213569699 C 554.9541701957176 348.8603451061239 552.7155939448716 351.0989213569699 549.9541701957176 351.0989213569699 C 547.1927464465635 351.0989213569699 544.9541701957176 348.8603451061239 544.9541701957176 346.0989213569699 C 544.9541701957176 343.337497607816 547.1927464465635 341.0989213569699 549.9541701957176 341.0989213569699 C 552.7155939448716 341.0989213569699 554.9541701957176 343.337497607816 554.9541701957176 346.0989213569699 Z" stroke-opacity="1" stroke-linecap="round" stroke-linejoin="round" stroke-miterlimit="10"/><text fill="rgb(110,109,115)" stroke="none" font-family="geogebra-sans-serif, sans-serif" font-size="16px" font-style="normal" font-weight="normal" text-decoration="normal" x="554" y="336" text-anchor="start" dominant-baseline="alphabetic" fill-opacity="1">E</text><path fill="rgb(110,109,115)" stroke="none" paint-order="stroke fill markers" d=" M 521.069635266791 488.824689693963 C 521.069635266791 491.586113443117 518.831059015945 493.824689693963 516.069635266791 493.824689693963 C 513.308211517637 493.824689693963 511.069635266791 491.586113443117 511.069635266791 488.824689693963 C 511.069635266791 486.0632659448091 513.308211517637 483.824689693963 516.069635266791 483.824689693963 C 518.831059015945 483.824689693963 521.069635266791 486.0632659448091 521.069635266791 488.824689693963 Z" fill-opacity="1"/><path fill="none" stroke="rgb(0,0,0)" paint-order="fill stroke markers" d=" M 521.069635266791 488.824689693963 C 521.069635266791 491.586113443117 518.831059015945 493.824689693963 516.069635266791 493.824689693963 C 513.308211517637 493.824689693963 511.069635266791 491.586113443117 511.069635266791 488.824689693963 C 511.069635266791 486.0632659448091 513.308211517637 483.824689693963 516.069635266791 483.824689693963 C 518.831059015945 483.824689693963 521.069635266791 486.0632659448091 521.069635266791 488.824689693963 Z" stroke-opacity="1" stroke-linecap="round" stroke-linejoin="round" stroke-miterlimit="10"/><text fill="rgb(110,109,115)" stroke="none" font-family="geogebra-sans-serif, sans-serif" font-size="16px" font-style="normal" font-weight="normal" text-decoration="normal" x="520" y="479" text-anchor="start" dominant-baseline="alphabetic" fill-opacity="1">F</text><path fill="rgb(110,109,115)" stroke="none" paint-order="stroke fill markers" d=" M 976.4572486297875 388.71129104031684 C 976.4572486297875 391.4727147894708 974.2186723789415 393.71129104031684 971.4572486297875 393.71129104031684 C 968.6958248806335 393.71129104031684 966.4572486297875 391.4727147894708 966.4572486297875 388.71129104031684 C 966.4572486297875 385.9498672911629 968.6958248806335 383.71129104031684 971.4572486297875 383.71129104031684 C 974.2186723789415 383.71129104031684 976.4572486297875 385.9498672911629 976.4572486297875 388.71129104031684 Z" fill-opacity="1"/><path fill="none" stroke="rgb(0,0,0)" paint-order="fill stroke markers" d=" M 976.4572486297875 388.71129104031684 C 976.4572486297875 391.4727147894708 974.2186723789415 393.71129104031684 971.4572486297875 393.71129104031684 C 968.6958248806335 393.71129104031684 966.4572486297875 391.4727147894708 966.4572486297875 388.71129104031684 C 966.4572486297875 385.9498672911629 968.6958248806335 383.71129104031684 971.4572486297875 383.71129104031684 C 974.2186723789415 383.71129104031684 976.4572486297875 385.9498672911629 976.4572486297875 388.71129104031684 Z" stroke-opacity="1" stroke-linecap="round" stroke-linejoin="round" stroke-miterlimit="10"/><text fill="rgb(110,109,115)" stroke="none" font-family="geogebra-sans-serif, sans-serif" font-size="16px" font-style="normal" font-weight="normal" text-decoration="normal" x="975" y="379" text-anchor="start" dominant-baseline="alphabetic" fill-opacity="1">G</text><path fill="rgb(110,109,115)" stroke="none" paint-order="stroke fill markers" d=" M 841.4325109584594 244.95871861456837 C 841.4325109584594 247.72014236372235 839.1939347076134 249.95871861456837 836.4325109584594 249.95871861456837 C 833.6710872093054 249.95871861456837 831.4325109584594 247.72014236372235 831.4325109584594 244.95871861456837 C 831.4325109584594 242.1972948654144 833.6710872093054 239.95871861456837 836.4325109584594 239.95871861456837 C 839.1939347076134 239.95871861456837 841.4325109584594 242.1972948654144 841.4325109584594 244.95871861456837 Z" fill-opacity="1"/><path fill="none" stroke="rgb(0,0,0)" paint-order="fill stroke markers" d=" M 841.4325109584594 244.95871861456837 C 841.4325109584594 247.72014236372235 839.1939347076134 249.95871861456837 836.4325109584594 249.95871861456837 C 833.6710872093054 249.95871861456837 831.4325109584594 247.72014236372235 831.4325109584594 244.95871861456837 C 831.4325109584594 242.1972948654144 833.6710872093054 239.95871861456837 836.4325109584594 239.95871861456837 C 839.1939347076134 239.95871861456837 841.4325109584594 242.1972948654144 841.4325109584594 244.95871861456837 Z" stroke-opacity="1" stroke-linecap="round" stroke-linejoin="round" stroke-miterlimit="10"/><text fill="rgb(110,109,115)" stroke="none" font-family="geogebra-sans-serif, sans-serif" font-size="16px" font-style="normal" font-weight="normal" text-decoration="normal" x="840" y="235" text-anchor="start" dominant-baseline="alphabetic" fill-opacity="1">D</text><path fill="rgb(110,109,115)" stroke="none" paint-order="stroke fill markers" d=" M 711.3625346169932 446.7704446282478 C 711.3625346169932 448.97958362757095 709.5716736163164 450.7704446282478 707.3625346169932 450.7704446282478 C 705.1533956176701 450.7704446282478 703.3625346169932 448.97958362757095 703.3625346169932 446.7704446282478 C 703.3625346169932 444.56130562892463 705.1533956176701 442.7704446282478 707.3625346169932 442.7704446282478 C 709.5716736163164 442.7704446282478 711.3625346169932 444.56130562892463 711.3625346169932 446.7704446282478 Z" fill-opacity="1"/><path fill="none" stroke="rgb(0,0,0)" paint-order="fill stroke markers" d=" M 711.3625346169932 446.7704446282478 C 711.3625346169932 448.97958362757095 709.5716736163164 450.7704446282478 707.3625346169932 450.7704446282478 C 705.1533956176701 450.7704446282478 703.3625346169932 448.97958362757095 703.3625346169932 446.7704446282478 C 703.3625346169932 444.56130562892463 705.1533956176701 442.7704446282478 707.3625346169932 442.7704446282478 C 709.5716736163164 442.7704446282478 711.3625346169932 444.56130562892463 711.3625346169932 446.7704446282478 Z" stroke-opacity="1" stroke-linecap="round" stroke-linejoin="round" stroke-miterlimit="10"/><text fill="rgb(110,109,115)" stroke="none" font-family="geogebra-sans-serif, sans-serif" font-size="16px" font-style="normal" font-weight="normal" text-decoration="normal" x="711" y="439" text-anchor="start" dominant-baseline="alphabetic" fill-opacity="1">H</text><path fill="rgb(110,109,115)" stroke="none" paint-order="stroke fill markers" d=" M 695.8985482205017 508.5221626442963 C 695.8985482205017 510.7313016436195 694.1076872198248 512.5221626442963 691.8985482205017 512.5221626442963 C 689.6894092211785 512.5221626442963 687.8985482205017 510.7313016436195 687.8985482205017 508.5221626442963 C 687.8985482205017 506.31302364497316 689.6894092211785 504.5221626442963 691.8985482205017 504.5221626442963 C 694.1076872198248 504.5221626442963 695.8985482205017 506.31302364497316 695.8985482205017 508.5221626442963 Z" fill-opacity="1"/><path fill="none" stroke="rgb(0,0,0)" paint-order="fill stroke markers" d=" M 695.8985482205017 508.5221626442963 C 695.8985482205017 510.7313016436195 694.1076872198248 512.5221626442963 691.8985482205017 512.5221626442963 C 689.6894092211785 512.5221626442963 687.8985482205017 510.7313016436195 687.8985482205017 508.5221626442963 C 687.8985482205017 506.31302364497316 689.6894092211785 504.5221626442963 691.8985482205017 504.5221626442963 C 694.1076872198248 504.5221626442963 695.8985482205017 506.31302364497316 695.8985482205017 508.5221626442963 Z" stroke-opacity="1" stroke-linecap="round" stroke-linejoin="round" stroke-miterlimit="10"/><text fill="rgb(110,109,115)" stroke="none" font-family="geogebra-sans-serif, sans-serif" font-size="16px" font-style="normal" font-weight="normal" text-decoration="normal" x="696" y="501" text-anchor="start" dominant-baseline="alphabetic" fill-opacity="1">I</text><path fill="rgb(110,109,115)" stroke="none" paint-order="stroke fill markers" d=" M 610.5240985873679 231.9514315418993 C 610.5240985873679 234.16057054122246 608.7332375866911 235.9514315418993 606.5240985873679 235.9514315418993 C 604.3149595880448 235.9514315418993 602.5240985873679 234.16057054122246 602.5240985873679 231.9514315418993 C 602.5240985873679 229.7422925425761 604.3149595880448 227.9514315418993 606.5240985873679 227.9514315418993 C 608.7332375866911 227.9514315418993 610.5240985873679 229.7422925425761 610.5240985873679 231.9514315418993 Z" fill-opacity="1"/><path fill="none" stroke="rgb(0,0,0)" paint-order="fill stroke markers" d=" M 610.5240985873679 231.9514315418993 C 610.5240985873679 234.16057054122246 608.7332375866911 235.9514315418993 606.5240985873679 235.9514315418993 C 604.3149595880448 235.9514315418993 602.5240985873679 234.16057054122246 602.5240985873679 231.9514315418993 C 602.5240985873679 229.7422925425761 604.3149595880448 227.9514315418993 606.5240985873679 227.9514315418993 C 608.7332375866911 227.9514315418993 610.5240985873679 229.7422925425761 610.5240985873679 231.9514315418993 Z" stroke-opacity="1" stroke-linecap="round" stroke-linejoin="round" stroke-miterlimit="10"/><text fill="rgb(110,109,115)" stroke="none" font-family="geogebra-sans-serif, sans-serif" font-size="16px" font-style="normal" font-weight="normal" text-decoration="normal" x="611" y="224" text-anchor="start" dominant-baseline="alphabetic" fill-opacity="1">K</text></g></g></svg>